<svg xmlns="http://www.w3.org/2000/svg" width="59.33" height="59.33" viewBox="0 0 59.33 59.33">
  <g id="bloodTest" transform="translate(-0.27 -0.27)">
    <g id="Group_44" data-name="Group 44">
      <path id="Path_79" data-name="Path 79" d="M15.9,29a1.421,1.421,0,0,1-.6-.2.913.913,0,0,1,0-1.2,2.578,2.578,0,0,1,2-.7c.4,0,.6,0,.7-.2.2-.2.2-.3.2-.7a2.442,2.442,0,0,1,2.7-2.7c.4,0,.6,0,.7-.2.2-.2.2-.3.2-.7a2.442,2.442,0,0,1,2.7-2.7c.4,0,.6,0,.7-.2.2-.2.2-.3.2-.7a2.442,2.442,0,0,1,2.7-2.7c.4,0,.6,0,.7-.2A.849.849,0,0,1,30,17.1a2.578,2.578,0,0,1-2,.7c-.4,0-.6,0-.7.2-.2.2-.2.3-.2.7a2.442,2.442,0,0,1-2.7,2.7c-.4,0-.6,0-.7.2-.2.2-.2.3-.2.7A2.442,2.442,0,0,1,20.8,25c-.4,0-.6,0-.7.2a1.165,1.165,0,0,0-.2.7,2.442,2.442,0,0,1-2.7,2.7c-.4,0-.6,0-.7.2A1.072,1.072,0,0,1,15.9,29Z" fill="#0072bc" stroke="#0072bc" stroke-miterlimit="10" stroke-width="1"/>
    </g>
    <g id="Group_45" data-name="Group 45">
      <path id="Path_80" data-name="Path 80" d="M49.1,59.1A10.243,10.243,0,0,1,42,56.2L7.6,21.7a.913.913,0,0,1,0-1.2l13-13a.913.913,0,0,1,1.2,0L56.2,42a10.141,10.141,0,0,1,0,14.2h0A10.243,10.243,0,0,1,49.1,59.1ZM9.4,21.1,43.2,55A8.344,8.344,0,0,0,55,43.2L21.1,9.4ZM55.6,55.6Z" fill="#0072bc" stroke="#0072bc" stroke-miterlimit="10" stroke-width="1"/>
    </g>
    <g id="Group_46" data-name="Group 46">
      <path id="Path_81" data-name="Path 81" d="M6.2,23.9h0a1.421,1.421,0,0,1-.6-.2L1.1,19.2a.913.913,0,0,1,0-1.2L18,1.1a.913.913,0,0,1,1.2,0l4.5,4.5a.735.735,0,0,1,.2.6,1.421,1.421,0,0,1-.2.6L6.8,23.7A1.072,1.072,0,0,1,6.2,23.9ZM2.9,18.6l3.3,3.3L21.9,6.2,18.6,2.9Z" fill="#0072bc" stroke="#0072bc" stroke-miterlimit="10" stroke-width="1"/>
    </g>
    <g id="Group_47" data-name="Group 47">
      <path id="Path_82" data-name="Path 82" d="M11.2,52a6.274,6.274,0,0,1-6.3-6.3c0-3.1,4.8-13.1,5.3-14.3a.792.792,0,0,1,.8-.5,1.02,1.02,0,0,1,.8.5c.6,1.1,5.8,11.2,5.8,14.3A6.493,6.493,0,0,1,11.2,52ZM11,33.7c-1.7,3.6-4.4,10-4.4,12a4.6,4.6,0,0,0,9.2,0C15.8,43.9,13.2,38,11,33.7Z" fill="#0072bc" stroke="#0072bc" stroke-miterlimit="10" stroke-width="1"/>
    </g>
  </g>
</svg>
