<svg xmlns="http://www.w3.org/2000/svg" width="59.789" height="53.015" viewBox="0 0 59.789 53.015">
  <g id="consult" transform="translate(-0.056 -5.1)">
    <path id="Path_118" data-name="Path 118" d="M48.5,43.9a1.518,1.518,0,0,1-1.7,1.4H44.5c-.4,0-.5.1-.5.5v2.3a1.413,1.413,0,1,1-2.8,0V46.9c-.1-.5.2-1.2-.1-1.5s-1-.1-1.6-.1a4.329,4.329,0,0,1-1.6-.1,1.365,1.365,0,0,1-1.1-1.4,1.493,1.493,0,0,1,1.4-1.3h2.5c.4,0,.5-.1.5-.5V39.8A1.616,1.616,0,0,1,42.6,38c.8,0,1.4.7,1.4,1.8v2.1c0,.4.1.5.5.5h2.3C47.8,42.5,48.5,43.1,48.5,43.9Z" fill="#0a72ba"/>
    <path id="Path_119" data-name="Path 119" d="M58.8,33.3H26.6a1.288,1.288,0,0,0-1.3,1.4,1.238,1.238,0,0,0,1.3,1.4h1.9c.5,0,.6.2.5.7V51.2c0,1.9,1,3.3,2.5,3.3H53.4a1.268,1.268,0,0,0,.6-.1c1.3-.4,2-1.6,2-3.4V36.8c0-.5.1-.7.5-.6h2.2c.6,0,1.1-.7,1.1-1.4A1.129,1.129,0,0,0,58.8,33.3ZM54.1,50.9c0,.8-.1.9-.7.9H31.9c-.7,0-.7-.1-.7-.9v-14c0-.5.1-.7.5-.7H53.6c.4,0,.5.2.5.7Z" fill="#0a72ba"/>
    <path id="Path_120" data-name="Path 120" d="M48.5,43.9a1.518,1.518,0,0,1-1.7,1.4H44.5c-.4,0-.5.1-.5.5v2.3a1.413,1.413,0,1,1-2.8,0V46.9c-.1-.5.2-1.2-.1-1.5s-1-.1-1.6-.1a4.329,4.329,0,0,1-1.6-.1,1.365,1.365,0,0,1-1.1-1.4,1.493,1.493,0,0,1,1.4-1.3h2.5c.4,0,.5-.1.5-.5V39.8A1.616,1.616,0,0,1,42.6,38c.8,0,1.4.7,1.4,1.8v2.1c0,.4.1.5.5.5h2.3C47.8,42.5,48.5,43.1,48.5,43.9Z" fill="#0a72ba"/>
    <path id="Path_121" data-name="Path 121" d="M18.5,35.3a1.245,1.245,0,0,1-1.8.6c-1.6-.8-3.1-1.6-4.6-2.4a4.494,4.494,0,0,0-1.2-.6A4.227,4.227,0,0,1,8.2,29c-.2-1.5-.5-3-1.8-4a2.352,2.352,0,0,0-2.5-.5,2.083,2.083,0,0,0-1.2,2.2,27.779,27.779,0,0,0,1.1,8.1c.5,1.9.9,3.7,1.5,5.5a5.066,5.066,0,0,0,5.2,3.8c1.1,0,2.2,0,3.3-.1.6-.1.8.2.8.7,0,.4.1.9.1,1.3s-.1.7-.5.7a19.1,19.1,0,0,1-6.3-.3A6.64,6.64,0,0,1,3,41.6a61.765,61.765,0,0,1-2.9-12,9.652,9.652,0,0,1,0-1.7,14.769,14.769,0,0,1,.1-2.1,4.6,4.6,0,0,1,6.2-3.7c2.5.8,3.8,2.8,4.4,5.2a6.448,6.448,0,0,1,.3,2,1.377,1.377,0,0,0,.9,1.3c2,1,4.1,2.1,6.1,3.2C18.6,33.9,18.8,34.6,18.5,35.3Z" fill="#0a72ba"/>
    <path id="Path_122" data-name="Path 122" d="M55.5,26.2v2.5a2.2,2.2,0,0,1-.1.8A1.438,1.438,0,0,1,54,30.6a1.5,1.5,0,0,1-1.2-1.4,28.053,28.053,0,0,1,0-2.9,2.184,2.184,0,0,0-1-2.1,15.653,15.653,0,0,0-3.3-1.9.765.765,0,0,0-.9.2c-1.3,1.2-2.6,2.4-3.9,3.7-.4.4-.6.3-.9,0-1.3-1.3-2.6-2.5-3.9-3.7a.483.483,0,0,0-.7-.1,29.549,29.549,0,0,0-3.8,2.3,1.943,1.943,0,0,0-.8,1.6v3.3a1.383,1.383,0,0,1-1.7,1.5,1.3,1.3,0,0,1-1-1.3v-2c-.5-2.8.8-4.5,3-5.9a20.8,20.8,0,0,1,3.8-2.2,1.973,1.973,0,0,1,2.3.4c.9.9,1.9,1.8,2.8,2.7.3.3.5.3.8,0,.9-.9,1.8-1.7,2.7-2.6a2,2,0,0,1,2.4-.5,45.309,45.309,0,0,1,4.8,2.7A4.207,4.207,0,0,1,55.5,26.2Z" fill="#0a72ba"/>
    <path id="Path_123" data-name="Path 123" d="M23.6,44.7a6.606,6.606,0,0,1-.3,2.4c-.8,3.3-1.7,6.6-2.5,9.9a1.27,1.27,0,0,1-1.5,1.1,1.12,1.12,0,0,1-1.2-1,1.645,1.645,0,0,1,.1-1c.6-2.5,1.3-5.1,1.9-7.6a20.54,20.54,0,0,0,.7-3.4c0-.2.1-.4,0-.6-.2-1.5-.3-1.6-1.7-1.7l-6.6-.6c-.6-.1-1.3-.1-1.9-.2a1.342,1.342,0,0,1-1.2-1.5A1.383,1.383,0,0,1,11,39.3q4.5.6,9,.9c2.3.2,3.3,1.8,3.6,3.8Z" fill="#0a72ba"/>
    <path id="Path_124" data-name="Path 124" d="M13.7,14.1a5.378,5.378,0,0,1-5.4,5.4A5.422,5.422,0,0,1,2.8,14,5.549,5.549,0,0,1,8.3,8.5,5.617,5.617,0,0,1,13.7,14.1Z" fill="#0a72ba"/>
    <path id="Path_125" data-name="Path 125" d="M49.4,11.5a6.318,6.318,0,0,1-6.2,6.3,6.212,6.212,0,0,1-6.3-6.3,6.425,6.425,0,0,1,6.3-6.4A6.34,6.34,0,0,1,49.4,11.5Z" fill="#0a72ba"/>
    <path id="Path_126" data-name="Path 126" d="M48.5,43.9a1.518,1.518,0,0,1-1.7,1.4H44.5c-.4,0-.5.1-.5.5v2.3a1.413,1.413,0,1,1-2.8,0V46.9c-.1-.5.2-1.2-.1-1.5s-1-.1-1.6-.1a4.329,4.329,0,0,1-1.6-.1,1.365,1.365,0,0,1-1.1-1.4,1.493,1.493,0,0,1,1.4-1.3h2.5c.4,0,.5-.1.5-.5V39.8A1.616,1.616,0,0,1,42.6,38c.8,0,1.4.7,1.4,1.8v2.1c0,.4.1.5.5.5h2.3C47.8,42.5,48.5,43.1,48.5,43.9Z" fill="#0a72ba"/>
    <path id="Path_127" data-name="Path 127" d="M30,36.4V52.6H54.7V35.2h-25Z" fill="#0a72ba"/>
    <path id="Path_128" data-name="Path 128" d="M48.5,43.9a1.518,1.518,0,0,1-1.7,1.4H44.5c-.4,0-.5.1-.5.5v2.3a1.413,1.413,0,1,1-2.8,0V46.9c-.1-.5.2-1.2-.1-1.5s-1-.1-1.6-.1a4.329,4.329,0,0,1-1.6-.1,1.365,1.365,0,0,1-1.1-1.4,1.493,1.493,0,0,1,1.4-1.3h2.5c.4,0,.5-.1.5-.5V39.8A1.616,1.616,0,0,1,42.6,38c.8,0,1.4.7,1.4,1.8v2.1c0,.4.1.5.5.5h2.3C47.8,42.5,48.5,43.1,48.5,43.9Z" fill="#fff"/>
  </g>
</svg>
