<svg xmlns="http://www.w3.org/2000/svg" width="58.921" height="57.652" viewBox="0 0 58.921 57.652">
  <g id="equipments" transform="translate(-0.589 -0.558)">
    <g id="Group_73" data-name="Group 73">
      <path id="Path_106" data-name="Path 106" d="M16.3,10.5a1.421,1.421,0,0,1-.6-.2l-.6-.6a4.01,4.01,0,0,1-1.2-2.8,3.784,3.784,0,0,1,1.2-2.8L17,2.2a4.046,4.046,0,0,1,5.6,0l.6.6a.913.913,0,0,1,0,1.2l-6.3,6.3A1.421,1.421,0,0,1,16.3,10.5Zm3.4-7.8a1.99,1.99,0,0,0-1.6.7L16.2,5.3a2.36,2.36,0,0,0-.7,1.6,1.99,1.99,0,0,0,.7,1.6h0l5.1-5.1h0A1.99,1.99,0,0,0,19.7,2.7Z" fill="#0072bc" stroke="#0072bc" stroke-miterlimit="10" stroke-width="1.021"/>
    </g>
    <g id="Group_74" data-name="Group 74">
      <path id="Path_107" data-name="Path 107" d="M42.8,35.4a1.421,1.421,0,0,1-.6-.2l-3-3a.913.913,0,0,1,0-1.2l4.7-4.7a.913.913,0,0,1,1.2,0l3,3a.735.735,0,0,1,.2.6,1.421,1.421,0,0,1-.2.6l-4.7,4.7A1.421,1.421,0,0,1,42.8,35.4ZM41,31.6l1.8,1.8,3.5-3.5-1.8-1.8Z" fill="#0072bc" stroke="#0072bc" stroke-miterlimit="10" stroke-width="1.021"/>
    </g>
    <g id="Group_75" data-name="Group 75">
      <path id="Path_108" data-name="Path 108" d="M18.8,50.9h-.2a13.081,13.081,0,0,1-1.5-.5,20.5,20.5,0,0,1-6.8-4.2,20.792,20.792,0,0,1,.3-30.8,20.83,20.83,0,0,1,5.7-3.5.765.765,0,0,1,.9.2l5,5a.778.778,0,0,1,.2.8.9.9,0,0,1-.6.6,12.028,12.028,0,0,0-8.5,16.4,11.576,11.576,0,0,0,7.8,6.8.9.9,0,0,1,.6.6.778.778,0,0,1-.2.8,5.835,5.835,0,0,0-1.7,4.1v3a.908.908,0,0,1-.3.7A1.488,1.488,0,0,0,18.8,50.9ZM16.3,13.5a19.474,19.474,0,0,0-4.8,3A19.092,19.092,0,0,0,5.4,33.9a19.6,19.6,0,0,0,5.9,10.9,20.255,20.255,0,0,0,6.3,3.9c.1,0,.2.1.3.1V47a8.049,8.049,0,0,1,1.3-4.3,13.369,13.369,0,0,1-7.7-7.4,14.336,14.336,0,0,1-.2-10,13.581,13.581,0,0,1,8.5-8.2Z" fill="#0072bc" stroke="#0072bc" stroke-miterlimit="10" stroke-width="1.021"/>
    </g>
    <g id="Group_76" data-name="Group 76">
      <path id="Path_109" data-name="Path 109" d="M37.7,34.5a1.421,1.421,0,0,1-.6-.2L14.3,11.6a.912.912,0,0,1,0-1.2l9-9a.913.913,0,0,1,1.2,0L47.2,24.1a.735.735,0,0,1,.2.6,1.421,1.421,0,0,1-.2.6l-9,9C38.1,34.5,37.9,34.5,37.7,34.5ZM16.1,11,37.7,32.6l7.8-7.8L23.9,3.2Z" fill="#0072bc" stroke="#0072bc" stroke-miterlimit="10" stroke-width="1.021"/>
    </g>
    <g id="Group_77" data-name="Group 77">
      <path id="Path_110" data-name="Path 110" d="M18.8,57.7H1.9a.789.789,0,0,1-.8-.8V51.3a.789.789,0,0,1,.8-.8H18.8a.789.789,0,0,1,.8.8v5.6A.789.789,0,0,1,18.8,57.7ZM2.7,56.1H17.9v-4H2.7Z" fill="#0072bc" stroke="#0072bc" stroke-miterlimit="10" stroke-width="1.021"/>
    </g>
    <g id="Group_78" data-name="Group 78">
      <path id="Path_111" data-name="Path 111" d="M58.1,57.7H32.3a.789.789,0,0,1-.8-.8V51.3a.789.789,0,0,1,.8-.8H58.2a.789.789,0,0,1,.8.8v5.6A.817.817,0,0,1,58.1,57.7Zm-25-1.6H57.3v-4H33.1Z" fill="#0072bc" stroke="#0072bc" stroke-miterlimit="10" stroke-width="1.021"/>
    </g>
    <g id="Group_79" data-name="Group 79">
      <path id="Path_112" data-name="Path 112" d="M32.3,57.7H18.8a.789.789,0,0,1-.8-.8V47a7.493,7.493,0,0,1,2.2-5.3,7.412,7.412,0,0,1,5.4-2.3A7.6,7.6,0,0,1,33.2,47v9.9A.948.948,0,0,1,32.3,57.7ZM19.6,56.1H31.4V47a5.911,5.911,0,0,0-5.9-5.9,5.6,5.6,0,0,0-4.2,1.8A5.835,5.835,0,0,0,19.6,47v9.1Z" fill="#0072bc" stroke="#0072bc" stroke-miterlimit="10" stroke-width="1.021"/>
    </g>
    <g id="Group_80" data-name="Group 80">
      <path id="Path_113" data-name="Path 113" d="M47.7,52.1H41.3a.789.789,0,0,1-.8-.8v-9a.76.76,0,0,1,.6-.8l6.4-2a.821.821,0,0,1,.7.1.908.908,0,0,1,.3.7v11A.789.789,0,0,1,47.7,52.1Zm-5.5-1.7h4.7v-9l-4.7,1.4Z" fill="#0072bc" stroke="#0072bc" stroke-miterlimit="10" stroke-width="1.021"/>
    </g>
    <g id="Group_81" data-name="Group 81">
      <path id="Path_114" data-name="Path 114" d="M34.1,45.3a.76.76,0,0,1-.8-.6l-.9-3a.661.661,0,0,1,.1-.6,1,1,0,0,1,.5-.4l20.2-6.2a.825.825,0,0,1,1,.5l.9,3a.825.825,0,0,1-.5,1L34.4,45.2C34.2,45.3,34.2,45.3,34.1,45.3Zm.1-3.3.4,1.4,18.6-5.7-.4-1.4Z" fill="#0072bc" stroke="#0072bc" stroke-miterlimit="10" stroke-width="1.021"/>
    </g>
    <g id="Group_82" data-name="Group 82">
      <path id="Path_115" data-name="Path 115" d="M25.5,51.4A3.372,3.372,0,0,1,22.1,48a.8.8,0,0,1,1.6,0,1.7,1.7,0,1,0,1.7-1.7.8.8,0,0,1,0-1.6,3.372,3.372,0,0,1,3.4,3.4A3.265,3.265,0,0,1,25.5,51.4Z" fill="#0072bc" stroke="#0072bc" stroke-miterlimit="10" stroke-width="1.021"/>
    </g>
  </g>
</svg>
