<svg xmlns="http://www.w3.org/2000/svg" width="40.1" height="59.2" viewBox="0 0 40.1 59.2">
  <g id="medicalRecord" transform="translate(-9.9 -0.5)">
    <g id="Group_12" data-name="Group 12">
      <path id="Path_43" data-name="Path 43" d="M50,48.3v-13a2.636,2.636,0,0,0-1.6-2.5,2.537,2.537,0,0,0-1.2-.2V25.8a1.312,1.312,0,0,0-1.4-1.4H30.5a.367.367,0,0,1-.3-.1c-.5-.4-1.1-.8-1.7-1.3a23.069,23.069,0,0,0-1.9-1.4,1.5,1.5,0,0,0-1.1-.4H14.2a1.326,1.326,0,0,0-1.5,1.5v9.9h0a2.734,2.734,0,0,0-2.8,2.8v22a2.792,2.792,0,0,0,2.8,2.3H47a3.227,3.227,0,0,0,2.1-.8,3.037,3.037,0,0,0,.8-2.1C50,53.8,50,51.1,50,48.3ZM12.6,56.5V35.2H47.2c.1,0,.1,0,.1.1V56.8H12.6Zm2.6-32.6v0Zm.2,8.7V23.9h10l.1.1,1.3,1c.8.6,1.5,1.2,2.3,1.8a1.5,1.5,0,0,0,1.1.4H44.5v5.6H15.4Z" fill="#0a72ba"/>
    </g>
    <g id="Group_13" data-name="Group 13">
      <path id="Path_44" data-name="Path 44" d="M47.2,15.5v7A1.216,1.216,0,0,1,46,23.7h-.1a1.3,1.3,0,0,1-1.3-1v-.5h0V16.7H30.2a1.5,1.5,0,0,1-1.1-.4l-3.6-2.7H15.4v5.2a1.29,1.29,0,0,1-.5,1.1,1.277,1.277,0,0,1-1.2.2,1.381,1.381,0,0,1-1-1.3V12.3a1.265,1.265,0,0,1,1.4-1.4H25.8a1.4,1.4,0,0,1,.9.3l1.4,1.1c.7.6,1.4,1.1,2.2,1.7.1.1.2.1.4.1H45.8A1.312,1.312,0,0,1,47.2,15.5Z" fill="#0a72ba"/>
    </g>
    <g id="Group_14" data-name="Group 14">
      <path id="Path_45" data-name="Path 45" d="M47.2,5v7A1.3,1.3,0,0,1,46,13.3h-.2a1.424,1.424,0,0,1-1.3-.9V6.3H30.1a1.689,1.689,0,0,1-1-.3c-.6-.4-1.1-.9-1.7-1.3-.6-.5-1.2-.9-1.8-1.4-.1-.1-.2-.1-.4-.1H15.4v4h0V8.5a1.3,1.3,0,0,1-1.2,1.3h-.1a1.221,1.221,0,0,1-1.3-1.1,2.134,2.134,0,0,1,0-.8V2A1.326,1.326,0,0,1,14.3.5H25.8A1.922,1.922,0,0,1,27,.9c.7.5,1.3,1,2,1.5l1.5,1.2c.1.1.1.1.3.1H45.9a1.48,1.48,0,0,1,1.4.8C47.2,4.5,47.2,4.8,47.2,5Z" fill="#0a72ba"/>
    </g>
    <g id="Group_15" data-name="Group 15">
      <path id="Path_46" data-name="Path 46" d="M41.8,19.9a1.149,1.149,0,0,1-.9.6H19.6a1.159,1.159,0,0,1-1-.4,1.344,1.344,0,0,1,1-2.3H40.5a1.305,1.305,0,0,1,1.4.9A1.672,1.672,0,0,1,41.8,19.9Z" fill="#0a72ba"/>
    </g>
    <g id="Group_16" data-name="Group 16">
      <path id="Path_47" data-name="Path 47" d="M19.6,9.5H40.8a.82.82,0,0,0,.7-1.1.8.8,0,0,0-.9-.6h-21a.952.952,0,0,0-.7.2.765.765,0,0,0-.2.9A.961.961,0,0,0,19.6,9.5Z" fill="#0a72ba"/>
      <path id="Path_48" data-name="Path 48" d="M33.4,10H19.6a1.34,1.34,0,0,1-1.3-.8,1.4,1.4,0,0,1,.3-1.5,1.314,1.314,0,0,1,1-.3h21a1.308,1.308,0,0,1,1.4,1,1.389,1.389,0,0,1-.2,1.1,1.7,1.7,0,0,1-1,.6H38.1C36.5,10,34.9,10,33.4,10ZM19.6,9H40.8a.349.349,0,0,0,.2-.1q0-.15,0-.3c0-.1-.1-.2-.4-.2h-21c-.2,0-.3,0-.3.1-.1.1-.1.2-.1.4a.584.584,0,0,0,.4.1Z" fill="#0a72ba"/>
    </g>
    <g id="Group_18" data-name="Group 18">
      <path id="Path_49" data-name="Path 49" d="M28.6,40.2Z" fill="#0a72ba"/>
      <g id="Group_17" data-name="Group 17">
        <path id="Path_50" data-name="Path 50" d="M36.3,43.4H32.7V40.2a2.221,2.221,0,0,0-1-2,2.656,2.656,0,0,0-2.7-.5,2.622,2.622,0,0,0-1.7,2.1,3.352,3.352,0,0,0,0,1v2.6l-2-.1H24.1a2.523,2.523,0,0,0-1.7.6,2.443,2.443,0,0,0-1,2.2A2.705,2.705,0,0,0,23,48.5a2.1,2.1,0,0,0,1.4.2h.8l2.1-.2.1,2.5v1.3a2.653,2.653,0,0,0,1.1,1.8,3.022,3.022,0,0,0,1.6.5h.4a2.69,2.69,0,0,0,2.3-2.7V48.7h2.8a3.083,3.083,0,0,0,1-.1,2.791,2.791,0,0,0,2.1-2.7A2.865,2.865,0,0,0,36.3,43.4Z" fill="#0a72ba"/>
      </g>
    </g>
    <g id="Group_19" data-name="Group 19">
      <path id="Path_51" data-name="Path 51" d="M41.9,29.5a1.383,1.383,0,0,1-1.2,1.1H19.6a1.335,1.335,0,0,1-1.4-.9,1.672,1.672,0,0,1,.1-1.2,1.445,1.445,0,0,1,1-.7h21a2.2,2.2,0,0,1,.8.1A1.545,1.545,0,0,1,41.9,29.5Z" fill="#0a72ba"/>
    </g>
  </g>
</svg>
