<svg xmlns="http://www.w3.org/2000/svg" width="60.1" height="59.266" viewBox="0 0 60.1 59.266">
  <g id="medicine" transform="translate(220.7 -160.517)">
    <path id="Path_129" data-name="Path 129" d="M7.3,7.3h0Z" transform="translate(-167.9 154)" fill="#0a72ba"/>
    <g id="Group_11" data-name="Group 11" transform="translate(-224 160)">
      <path id="Path_25" data-name="Path 25" d="M13.9,18.4a1.447,1.447,0,0,1-.9-.8,3.787,3.787,0,0,0-2.5-2.1v-.3c-.1-4.4-.1-8.8-.1-13.3,0-.6-.3-1-.8-1s-.8.4-.8,1V15.5H8.7a3.354,3.354,0,0,0-2.6,2.4c-.1.3-.3.3-.5.4a2.441,2.441,0,0,0-1.9,2.4V43.9a2.253,2.253,0,0,0,1.6,2.3,3.645,3.645,0,0,0,1.5.2h2v8.9c-.3,0-.5.1-.7.1a7.991,7.991,0,0,0-3.6,1.4,1.943,1.943,0,0,0-.8,1.6.805.805,0,0,0,.8,1H14.9a.765.765,0,0,0,.8-.9,2.279,2.279,0,0,0-.3-1.1,3.1,3.1,0,0,0-2-1.5c-.9-.3-1.9-.5-2.9-.8V46.3h2.4a3.75,3.75,0,0,0,1.1-.1,2.586,2.586,0,0,0,1.7-2.7V20.6A2.734,2.734,0,0,0,13.9,18.4ZM9.2,17.1c1.1-.1,2,.3,2.2,1.1H7.8C7.8,17.7,8.5,17.1,9.2,17.1Zm3.7,40.6v.1H6.1v-.1A8.9,8.9,0,0,1,12.9,57.7Zm1-34.9V44a.86.86,0,0,1-.8.8h-7a.86.86,0,0,1-.8-.8V41.5H7.9c.6,0,1-.3,1-.9,0-.5-.4-.8-1-.8H5.3V37H8.1a.8.8,0,1,0,0-1.6H5.3V32.7c0-.1.2-.2.3-.2H8.1a.752.752,0,0,0,.7-.5.875.875,0,0,0-.1-1,1.141,1.141,0,0,0-.6-.3H5.3V27.8H8c.6,0,.9-.3.9-.8a.817.817,0,0,0-.9-.8H5.3V23.4H8.1a.8.8,0,1,0,0-1.6H5.3V20.7c.1-.5.4-.7,1-.7h6.6a.892.892,0,0,1,1,1.1A9.484,9.484,0,0,0,13.9,22.8Z" fill="#0a72ba" stroke="#0072bc" stroke-miterlimit="10" stroke-width="0.766"/>
      <path id="Path_26" data-name="Path 26" d="M55.4,42.4a6.33,6.33,0,0,0-5.3-2.8H31.3a7.719,7.719,0,0,0-1.5.2,6.5,6.5,0,0,0,1.8,12.8H49.9a6.565,6.565,0,0,0,4.9-2A6.474,6.474,0,0,0,55.4,42.4ZM39.9,51H31.4a4.823,4.823,0,0,1-4.7-3.9,4.761,4.761,0,0,1,4.7-5.7H40V51Zm10.9-.1a2.2,2.2,0,0,1-.8.1H41.6V41.4h8.5a4.841,4.841,0,0,1,4.8,4.7A4.681,4.681,0,0,1,50.8,50.9Z" fill="#0a72ba" stroke="#0072bc" stroke-miterlimit="10" stroke-width="0.766"/>
      <path id="Path_27" data-name="Path 27" d="M44.2,21.2a8.65,8.65,0,0,0,0,17.3,8.536,8.536,0,0,0,8.6-8.6A8.432,8.432,0,0,0,44.2,21.2Zm.1,15.6a6.788,6.788,0,0,1-6.9-6.9,6.95,6.95,0,1,1,13.9.1A7.118,7.118,0,0,1,44.3,36.8Z" fill="#0a72ba" stroke="#0072bc" stroke-miterlimit="10" stroke-width="0.766"/>
      <path id="Path_28" data-name="Path 28" d="M26.7,13.4A8.686,8.686,0,0,0,18,22a8.559,8.559,0,0,0,8.4,8.6,8.671,8.671,0,0,0,8.8-8.4A8.558,8.558,0,0,0,26.7,13.4ZM26.9,29a6.917,6.917,0,0,1-7.1-6.7,7.006,7.006,0,0,1,6.7-7.2,7.085,7.085,0,0,1,7.2,6.8A7.069,7.069,0,0,1,26.9,29Z" fill="#0a72ba" stroke="#0072bc" stroke-miterlimit="10" stroke-width="0.766"/>
      <path id="Path_29" data-name="Path 29" d="M42.2,1.4a8.6,8.6,0,1,0,0,17.2,8.52,8.52,0,0,0,8.6-8.8A8.559,8.559,0,0,0,42.2,1.4ZM42.5,17a6.885,6.885,0,0,1-7.2-7,6.979,6.979,0,0,1,6.9-6.9A6.952,6.952,0,0,1,42.5,17Z" fill="#0a72ba" stroke="#0072bc" stroke-miterlimit="10" stroke-width="0.766"/>
      <path id="Path_30" data-name="Path 30" d="M12.9,57.8H6.1v-.1a8.9,8.9,0,0,1,6.8,0Z" fill="#0a72ba" stroke="#0072bc" stroke-miterlimit="10" stroke-width="0.766"/>
      <path id="Path_31" data-name="Path 31" d="M11.4,18.2H7.7a1.659,1.659,0,0,1,1.4-1.1A1.905,1.905,0,0,1,11.4,18.2Z" fill="#0a72ba" stroke="#0072bc" stroke-miterlimit="10" stroke-width="0.766"/>
      <path id="Path_32" data-name="Path 32" d="M50.3,29.8c0,.5-.4.8-1,.8H39.2c-.6,0-1-.3-1-.8s.4-.8,1-.8H49.3C49.9,29,50.3,29.3,50.3,29.8Z" fill="#0a72ba" stroke="#0072bc" stroke-miterlimit="10" stroke-width="0.766"/>
      <path id="Path_33" data-name="Path 33" d="M32.4,22.1c0,.5-.4.8-1,.8H27.5v4c0,.6-.3.9-.8.9s-.8-.3-.8-.9V23H22c-.6,0-1-.3-1-.9,0-.5.4-.8,1-.8h3.9V17.5c0-.7.3-1,.8-1,.6,0,.8.4.8,1v3.9h3.9A.739.739,0,0,1,32.4,22.1Z" fill="#0a72ba" stroke="#0072bc" stroke-miterlimit="10" stroke-width="0.766"/>
      <path id="Path_34" data-name="Path 34" d="M46.1,12.7c.4.5.5,1,.1,1.3a.859.859,0,0,1-1.3-.1c-.8-.8-1.6-1.7-2.5-2.5l-.3-.3c-.6.6-1.2,1.3-1.8,1.9l-.9.9a.942.942,0,0,1-1.3.1c-.3-.3-.3-.8.1-1.3.8-.9,1.7-1.7,2.6-2.6l.3-.3c-.6-.5-1.1-1.1-1.6-1.6L38.3,7a.942.942,0,0,1-.1-1.3.853.853,0,0,1,1.3,0c.9.8,1.7,1.7,2.6,2.6-.1.3-.1.4.1.5.7-.8,1.5-1.5,2.2-2.2L45,6a.749.749,0,0,1,1.2,0,.826.826,0,0,1-.1,1.2L43.6,9.7l-.3.3,1.3,1.3C45.1,11.8,45.6,12.2,46.1,12.7Z" fill="#0a72ba" stroke="#0072bc" stroke-miterlimit="10" stroke-width="0.766"/>
    </g>
  </g>
</svg>
