<svg xmlns="http://www.w3.org/2000/svg" width="59.991" height="49.396" viewBox="0 0 59.991 49.396">
  <g id="personalized" transform="translate(-0.009 -5.304)">
    <path id="Path_52" data-name="Path 52" d="M35.7,19.1A35.2,35.2,0,0,1,25.5,29.6a2.707,2.707,0,0,1-3.4,0,34.725,34.725,0,0,1-10-10.2c-1.6-2.5-2.5-5.3-1.6-8.3C12.2,5.2,18.8,3.6,23.8,8a2.407,2.407,0,0,0,.8-.6,6.8,6.8,0,0,1,7.5-1.6,7.425,7.425,0,0,1,5.2,6.3A11.214,11.214,0,0,1,35.7,19.1Z" fill="#0a72ba"/>
    <path id="Path_53" data-name="Path 53" d="M50.5,36.9c-2.4,3.5-4.7,6.8-7,10.2-1.2-.4-2.2-1.1-3.3-1.1a48.52,48.52,0,0,0-7.6.5c-3.6.6-7,1.2-10.4-.5-3.3-1.6-6.8-3-9.9-4.9A134.21,134.21,0,0,1,.8,32.8c-.5-.4-1-1.6-.7-1.9a3.037,3.037,0,0,1,2.1-1.2,10.481,10.481,0,0,1,2.9.8c2.8,1.1,5.5,2.2,8.2,3.2.8.3,1.6.5,2.6.8-.5.4-.8.6-1,.8-2.5,2.2-2.1,5,1.1,6.3a24.6,24.6,0,0,0,2.9.7c4.8,1.1,11.6,1.1,14.6,0a33.887,33.887,0,0,0-4.5-.2,46.434,46.434,0,0,1-5.3-.1c-2.2-.3-4.4-.8-6.6-1.3-1.3-.3-2.6-1-2.4-2.4a4.634,4.634,0,0,1,2.2-2.4,8.808,8.808,0,0,1,3.6-.6c2.2-.1,4.4.2,6.6,0a12.8,12.8,0,0,0,4.7-1.4c4.2-2.3,8.5-3.2,12.9-1A50.283,50.283,0,0,1,50.5,36.9Z" fill="#0a72ba"/>
    <path id="Path_54" data-name="Path 54" d="M52.6,36.2c-3.1,4.6-6.1,9-9.1,13.5,2.5,1.7,4.9,3.3,7.4,5,3-4.5,6-8.9,9.1-13.5C57.5,39.5,55.2,37.9,52.6,36.2ZM47.5,50.4c-.6.1-1.2-.6-2.2-1.2.9-.7,1.4-1.4,1.9-1.4A2.292,2.292,0,0,1,48.7,49C48.8,49.4,48,50.4,47.5,50.4Z" fill="#0a72ba"/>
  </g>
</svg>
