<svg xmlns="http://www.w3.org/2000/svg" width="59.944" height="45.649" viewBox="0 0 59.944 45.649">
  <g id="wellness" transform="translate(744.019 -636.297)">
    <path id="Path_35" data-name="Path 35" d="M39.5,35.9a29.968,29.968,0,0,1-1.8-4.1c-1.2-3.2-.8-6.1,1.8-8.5a23.21,23.21,0,0,0,6.1-9.6c.7-2.2.2-2.6-2.1-2.8s-3.4.5-4.5,2.6c-2.4,4.9-7.2,7.4-11.3,6.1-3.6-1.1-5.9-3.7-7.4-7-.7-1.4-3.8-2.4-5.4-1.5s-.6,2.4-.3,3.6a22.212,22.212,0,0,0,5.8,8.7c2.5,2.4,2.9,5.2,1.8,8.3a32.179,32.179,0,0,1-2.3,5c-2.1,4.4-4.2,8.7-5.4,13.4-.2.8-.6,1.6.1,2.3,1.5,1.3,6.4.1,7-1.7a27.9,27.9,0,0,1,5.7-10.4c2-2.1,3.1-2.1,5,.1a25.264,25.264,0,0,1,5.2,9.3c.6,2.2,1.5,3.8,3.9,3,4.3,0,4.4-.2,3.3-3.7A51.187,51.187,0,0,0,39.5,35.9Zm2.6,14.2c-.8.2-1.5.3-1.9-.9A29.975,29.975,0,0,0,35.4,40a4.35,4.35,0,0,0-.6-.7c-3.3-4-5.7-4.1-9.2-.5-2.8,2.9-4.3,6.4-5.7,9.9-.4,1-.8,1.9-2,1.5-1.2-.5-.2-1.4,0-2.1,1.2-4.2,3.3-8,5.2-11.9C24.6,33.1,26,30,25,26.5A9.552,9.552,0,0,0,22.5,22a21.488,21.488,0,0,1-5.1-7.2c-.2-.5-.9-1.1-.1-1.4.6-.3.9.3,1.2.9a13.867,13.867,0,0,0,7.9,7.3c1.9.9,3.9.7,5.9.5,5.1-1.2,7.8-5,10.5-8.8-.6,3.4-2.6,5.9-4.9,8.4-1,1.1-2.1,2-2.5,3.4-1.4,3.8-.6,7.5,1.5,10.9,1.9,4.2,4.3,8.3,5.5,12.8C42.5,49.1,43.3,49.8,42.1,50.1Z" transform="translate(-744 629)" fill="#0a72ba"/>
    <path id="Path_36" data-name="Path 36" d="M53.9,31.9c-1.1-2-.9-3.4.8-5a19.414,19.414,0,0,0,4.9-6.8c.3-.8.7-1.7-.4-2.3-1.4-.7-4.3.1-5.3,1.5-2.9,4-6.4,5.5-10.4,1.9-1.7,1.3-1.5,2.2.4,3.2a7.638,7.638,0,0,0,8.1-.1c1.9-1,3.1-2.7,4.5-4.1a17.982,17.982,0,0,1-4.1,5.4c-2.3,2.3-2.5,3.8-1.1,6.6,1.7,3.6,3.4,7.3,5.1,10.9.2.4,1,1.2-.1,1.5-.9.3-1-.5-1.2-1.1a20.35,20.35,0,0,0-4-6.8c-1.4-1.4-2.8-2.7-5.1-1.3-2.7,1.8-3.3,3.2-2.3,5.9,1-.2.9-.9,1.2-1.3,2.7-3.6,3-3.6,5.7.2a18.123,18.123,0,0,1,2.3,5.1c.5,1.6,3,2.3,5.3,1.6,1.9-.6,1.1-2,.8-3.1C58.1,39.8,56,35.8,53.9,31.9Z" transform="translate(-744 629)" fill="#0a72ba"/>
    <path id="Path_37" data-name="Path 37" d="M30,18.7a5.6,5.6,0,0,0,5.9-5.6A5.826,5.826,0,0,0,30,7.3c-3.2-.1-6.2,2.8-6.1,5.8A6.039,6.039,0,0,0,30,18.7Zm-.1-9.1A3.392,3.392,0,0,1,33.6,13a3.289,3.289,0,0,1-3.4,3.3A3.434,3.434,0,0,1,26.5,13,3.575,3.575,0,0,1,29.9,9.6Z" transform="translate(-744 629)" fill="#0a72ba"/>
    <path id="Path_38" data-name="Path 38" d="M48.8,18.7c-1.4.8-2.2-.3-2.9-1.3-1.7,2.2-1.7,2.5-.1,3.4a4.888,4.888,0,0,0,5.6-1.1,3.974,3.974,0,0,0,.1-5.3,3.67,3.67,0,0,0-3.6-1.7c-1.4.2-.6,1.7-1.2,2.5,1.7-.6,2.7-.1,3.2,1.3C50.4,17.5,49.7,18.2,48.8,18.7Z" transform="translate(-744 629)" fill="#0a72ba"/>
    <path id="Path_39" data-name="Path 39" d="M11.5,21.2c1.4.1,2.8,0,3.6-1.1s-.7-1.7-.8-2.8c-1.4,1.6-1.9,1.9-3,1.5A1.714,1.714,0,0,1,10,17.1c0-1.3.9-1.9,2.2-2.1,1.1-.1.8-.8.7-1.4-.2-.8-.7-1-1.5-.9a4.566,4.566,0,0,0-3.9,4.2A4.2,4.2,0,0,0,11.5,21.2Z" transform="translate(-744 629)" fill="#0a72ba"/>
    <path id="Path_40" data-name="Path 40" d="M19.7,25.9c.8-.5.3-1.1-.3-1.5-.3-.3-.4-.9-1.1-.5-2.2.9-4.3,5.2-3.4,7.3a64.472,64.472,0,0,0,2.9,5.9c.6-1.1,2.1-1.9,1.2-3.2C17,31,16.3,28.3,19.7,25.9Z" transform="translate(-744 629)" fill="#0a72ba"/>
    <path id="Path_41" data-name="Path 41" d="M42.1,37.2c.9-1.7,1.8-3.4,2.6-5.1,1.4-2.8-.1-6.7-2.9-8.2a.94.94,0,0,0-.9.1c-1.3.9-1.2,1.8-.1,2.6q3.45,2.55.9,6A3.221,3.221,0,0,0,42.1,37.2Z" transform="translate(-744 629)" fill="#0a72ba"/>
    <path id="Path_42" data-name="Path 42" d="M15.7,41.9c.7-1.1,1.5-1.9,1-3.1-1.6-4-5.5-4.6-8.4-1.4a21.441,21.441,0,0,0-3.6,6.4c-.2.6-.4,1.4-1.3,1.1-.9-.4-.1-.9,0-1.4A69.836,69.836,0,0,1,8.8,32.1,4.539,4.539,0,0,0,8,26.4C7,25.2,5.9,24.1,5,23c.2-.1.3-.3.4-.4,4.3,3.6,8.1,4,11.8,1.3.5-.4,1.2-.7.4-1.5-.6-.5-.6-1.4-1.9-.7-4.1,2.3-6.8,1.9-9.3-2-1.2-2-2.8-2.1-4.7-2-1.7.1-2,.9-1.5,2.2a11.818,11.818,0,0,0,3.4,5.2C7.4,28,7,30.9,4.8,34.5A37.412,37.412,0,0,0,.3,45.2c-.2,1.1,0,1.7,1.1,2a4.365,4.365,0,0,0,5.7-2.6A26.949,26.949,0,0,1,9,40.8c2.4-4,3.5-4,6-.1A3.121,3.121,0,0,1,15.7,41.9Z" transform="translate(-744 629)" fill="#0a72ba"/>
  </g>
</svg>
